# https://github.com/mikedh/trimesh
v 1.01840000 1.57600000 4.84440000
v 3.47253218 -2.80541076 4.81597500
v 3.47170191 -1.73641939 4.85057988
v -1.93899062 2.28741339 4.54626832
v -1.85174325 -2.42865698 4.78180000
v 2.57190000 -2.87850000 4.71550000
v -1.64914607 2.27960932 4.81795827
v 1.33620010 -0.91375614 4.89070825
v -1.71027346 -2.62840722 4.53529879
v -0.81273046 -2.78637309 4.78180000
v -1.87961004 2.36502334 4.56319192
v -1.97147321 1.81833361 4.78180000
v 0.85825330 -0.17854343 4.88496295
v 1.33684663 0.92725597 4.89068126
v -1.98199511 -2.12652038 4.52757747
v -1.98150727 2.15018299 4.54288163
v 2.58218761 -2.84987750 4.79652644
v -0.81482169 -2.80626906 4.60500000
v -1.60770135 -2.63202093 4.78180000
v -1.64682452 2.28035154 4.81799414
v -1.97174738 -1.80056833 4.78180000
v -1.91870000 2.23930000 4.78180000
v -1.85884715 -2.49319573 4.53284641
v -1.68200000 -2.62200000 4.71550000
v -1.96267843 -2.11427431 4.68164962
v -1.96305599 2.13490072 4.67432179
v -1.84219367 -2.47525163 4.71550000
f 1 3 4
f 6 3 2
f 6 4 3
f 8 2 3
f 10 2 8
f 11 1 4
f 13 5 8
f 14 8 3
f 14 3 1
f 14 13 8
f 14 7 13
f 16 4 6
f 16 6 9
f 16 9 15
f 17 10 6
f 17 6 2
f 17 2 10
f 18 9 6
f 18 6 10
f 19 18 10
f 19 10 8
f 19 8 5
f 20 1 11
f 20 14 1
f 20 7 14
f 21 7 12
f 21 13 7
f 21 5 13
f 21 16 15
f 21 12 16
f 22 11 4
f 22 4 16
f 22 12 7
f 22 20 11
f 22 7 20
f 23 15 9
f 23 5 15
f 24 19 5
f 24 9 18
f 24 18 19
f 24 23 9
f 25 21 15
f 25 15 5
f 25 5 21
f 26 22 16
f 26 16 12
f 26 12 22
f 27 24 5
f 27 5 23
f 27 23 24

