# https://github.com/mikedh/trimesh
v 0.42640000 -0.49121370 17.15523425
v 1.15312068 -1.63871178 16.48667163
v 0.44250401 -2.33549700 14.48250894
v -0.43738765 -2.19156874 14.44068479
v -1.95419897 -1.65878264 15.84155188
v -1.47067913 0.68688033 16.69335974
v 1.15267062 -1.16208410 16.85142615
v 0.35026744 -2.15857239 15.75574826
v 0.26500000 -2.30240000 14.41970000
v -1.99050000 -0.66660000 16.66220000
v -1.99050000 0.67721585 16.66324435
v 1.15278119 -1.80022181 16.30642413
v -0.48198391 0.45469691 17.01815301
v 0.40946479 -1.79236352 16.36451267
v -1.99050000 -1.84434511 15.44492773
v 0.05670000 -2.28205660 14.51901064
v 0.43171501 -2.32218686 15.26018290
v -1.39840000 0.61402353 16.81430327
v -0.97084823 -0.29893036 16.96467627
v -1.44790000 -1.78070000 15.85880000
v -1.99033806 -1.04017151 16.47354619
v 0.60620000 -1.52581116 16.65392179
v 0.59880000 -1.82410000 16.36320000
v 0.02533934 -2.27762602 15.12986126
v -0.35069518 -2.12439680 15.53021538
v -1.44790000 -0.59315702 16.80544004
v -0.93320000 0.31340000 16.97080000
v -1.99050000 0.62557276 16.68131767
v 0.05670000 -1.96254664 16.03393926
v -1.98946530 -1.76342340 15.65231095
v 0.19713216 -1.64364328 16.47727586
v 1.15260647 -1.39289905 16.69650229
v 0.60300208 -1.04848502 16.96581305
v 1.15260019 -1.78402623 16.32952623
v -0.42299764 -2.19580739 14.46252625
v 0.14928936 -2.26458825 15.31964476
v 0.02737972 -2.08403101 15.80180617
v -0.80487093 -0.43057766 16.96680625
v -1.44660681 -1.02534108 16.61464296
v -0.81987375 0.41369766 16.97021477
v -0.30100902 -1.79672746 16.17584821
v -1.99050000 -1.82860000 15.49490000
v 0.40951899 -1.52790119 16.62735001
v 0.60153586 -0.93383143 17.02065433
v -0.34211827 -0.70369195 16.95903916
v -0.69360000 0.44790000 16.98450000
v -0.13258108 -1.17365109 16.77470369
v -0.30040890 -1.34714413 16.62026496
v 0.36088268 -1.04360222 16.93801116
f 9 6 3
f 9 4 6
f 11 6 4
f 12 7 2
f 12 3 7
f 13 1 7
f 13 7 3
f 13 3 6
f 15 11 4
f 15 10 11
f 16 9 3
f 16 4 9
f 17 12 8
f 17 3 12
f 18 13 6
f 18 6 11
f 23 8 12
f 23 2 22
f 24 16 3
f 24 3 17
f 26 19 10
f 27 19 1
f 27 1 13
f 28 11 10
f 28 10 19
f 28 19 27
f 28 27 18
f 28 18 11
f 29 23 14
f 29 8 23
f 30 20 5
f 30 5 21
f 32 22 2
f 32 2 7
f 32 7 22
f 33 22 7
f 34 23 12
f 34 12 2
f 34 2 23
f 35 4 16
f 35 16 24
f 35 24 15
f 35 15 4
f 36 17 8
f 36 8 25
f 36 24 17
f 36 25 15
f 36 15 24
f 37 25 8
f 37 29 20
f 37 8 29
f 38 1 19
f 38 19 26
f 39 26 10
f 39 10 21
f 40 18 27
f 41 29 14
f 41 20 29
f 41 14 31
f 41 5 20
f 41 31 21
f 41 21 5
f 42 15 25
f 42 25 37
f 42 37 20
f 42 20 30
f 42 30 21
f 42 21 10
f 42 10 15
f 43 23 22
f 43 31 14
f 43 14 23
f 44 33 7
f 44 7 1
f 45 38 26
f 45 1 38
f 45 44 1
f 46 13 18
f 46 18 40
f 46 40 27
f 46 27 13
f 48 39 21
f 48 21 31
f 48 31 43
f 48 47 39
f 48 43 47
f 49 33 44
f 49 39 47
f 49 47 43
f 49 43 22
f 49 22 33
f 49 44 45
f 49 45 26
f 49 26 39

