# https://github.com/mikedh/trimesh
v 6.03213624 2.54999611 4.78180000
v 6.10900000 2.31360000 4.78180000
v 6.11240000 2.30040000 0.01630000
v 4.95599185 2.77295662 0.01630000
v 4.96251298 1.66528413 0.00000000
v 5.88350000 2.65620000 0.01630000
v 6.14820000 2.53990000 4.10740000
v 5.78933271 2.32767237 4.82603895
v 6.17473429 1.59335930 2.20205691
v 5.88190000 2.67370000 4.78180000
v 6.10816352 2.54099595 4.52647740
v 6.03101997 2.54682888 0.03250000
v 4.96040111 2.79642513 0.70470000
v 6.15866892 1.65956327 0.01630000
v 5.99168843 2.66582340 4.10430077
v 5.75361876 2.68055956 4.80579236
v 6.07994495 2.46330094 4.76116241
v 4.97267842 2.79551007 0.70470000
v 5.98621325 2.64272563 4.51368805
f 6 5 4
f 6 3 5
f 8 2 1
f 9 8 5
f 9 2 8
f 9 7 2
f 11 2 7
f 11 10 1
f 12 7 3
f 12 3 6
f 13 4 5
f 13 5 8
f 14 9 5
f 14 5 3
f 14 3 7
f 14 7 9
f 15 12 6
f 15 7 12
f 16 8 1
f 16 1 10
f 16 13 8
f 16 10 13
f 17 11 1
f 17 1 2
f 17 2 11
f 18 6 4
f 18 4 13
f 18 15 6
f 18 13 10
f 18 10 15
f 19 11 7
f 19 7 15
f 19 15 10
f 19 10 11

