# https://github.com/mikedh/trimesh
v -6.98940000 0.17040000 15.62720000
v -6.98940000 -0.15680000 15.62720000
v -7.24150000 -0.24400000 14.14320000
v -7.24631466 0.28375539 14.15818485
v -8.53370000 0.11060000 14.91390000
v -7.24262647 0.30715360 14.16524397
v -7.09853445 0.16331121 15.59258031
v -7.24150000 -0.67158410 15.08709547
v -8.52880000 -0.09250000 14.72750000
v -7.24150000 0.69050000 15.07570000
v -8.52880000 -0.09250000 14.92620000
v -7.24150000 -0.67690000 14.57800000
v -8.53370000 0.11060000 14.73980000
v -7.24150000 0.68209139 14.55772245
v -7.25080000 0.51640000 15.33650000
v -7.24150000 -0.50770000 15.34130000
v -7.24150000 -0.46090000 14.26950000
v -7.24150000 0.52130000 14.31240000
v -7.25080000 0.27297325 15.49650775
v -7.24150000 0.56420000 15.29450000
v -7.24150000 -0.25865729 15.50421830
v -7.25080000 -0.50280000 14.31720000
f 1 2 3
f 6 1 3
f 6 3 4
f 7 2 1
f 9 4 3
f 11 7 5
f 11 2 7
f 11 5 9
f 12 2 8
f 12 11 9
f 12 8 11
f 13 6 4
f 13 4 9
f 13 9 5
f 13 5 10
f 14 10 1
f 14 13 10
f 16 11 8
f 16 8 2
f 17 3 2
f 17 2 12
f 17 9 3
f 18 14 1
f 18 1 6
f 18 6 13
f 18 13 14
f 19 7 1
f 19 1 15
f 19 15 5
f 19 5 7
f 20 15 1
f 20 1 10
f 20 10 5
f 20 5 15
f 21 16 2
f 21 2 11
f 21 11 16
f 22 17 12
f 22 12 9
f 22 9 17

