# https://github.com/mikedh/trimesh
v -1.46210341 2.70104434 4.53951575
v -1.99006369 -1.98371037 4.56831347
v -1.66306394 -1.97878317 0.00000000
v -1.89872048 2.25831873 0.01630000
v -2.01624888 1.95079140 4.53261697
v -1.98529335 -1.80313918 0.08339576
v -1.30237502 2.71232194 2.56764628
v -1.86463961 2.49825454 4.53364616
v -1.95896125 -1.97332012 0.01630000
v -1.98507143 1.82066962 0.08436057
v -2.01624984 -1.93719139 4.53261085
v -1.64791098 2.36597090 0.00046030
v -1.32318394 2.71725903 3.85002166
v -2.00294436 2.26753911 4.10439217
v -1.65230000 2.61920000 0.31830000
v -1.98626983 -1.63568070 0.01630000
v -1.45701069 2.67029496 1.33130000
v -1.86072579 2.44806345 0.41409856
v -1.99730000 2.24760000 4.33700000
v -1.60651696 2.66511475 4.49739249
v -1.98542848 1.64590103 0.01729463
v -1.74081862 2.54872886 0.31830000
f 8 5 2
f 8 2 1
f 9 3 2
f 11 2 5
f 11 9 2
f 11 6 9
f 13 7 1
f 13 1 2
f 13 2 3
f 13 3 7
f 14 10 5
f 14 4 10
f 15 12 4
f 16 11 5
f 16 6 11
f 16 9 6
f 16 12 3
f 16 3 9
f 17 7 3
f 17 3 12
f 17 12 15
f 17 15 1
f 17 1 7
f 18 14 8
f 18 4 14
f 19 14 5
f 19 5 8
f 19 8 14
f 20 15 8
f 20 8 1
f 20 1 15
f 21 16 5
f 21 5 10
f 21 10 4
f 21 4 12
f 21 12 16
f 22 15 4
f 22 4 18
f 22 18 8
f 22 8 15

