# https://github.com/mikedh/trimesh
v 7.56430845 2.19182484 14.34952701
v 7.66264564 2.14842228 14.29701066
v 3.72750000 1.26690000 12.24550000
v 1.67933996 0.70006195 12.11704827
v -0.43830000 0.80665249 12.74237530
v 7.64308184 1.57818694 13.25885595
v 0.52500000 2.34374220 14.36098714
v -0.41354145 1.70675973 13.37526155
v 1.61582508 0.69707370 12.26594542
v 0.01865765 0.78495958 12.65447498
v 7.54136042 1.83105119 13.32330683
v -0.18300000 2.19203208 14.20495218
v 2.38010000 1.17810000 12.15530000
v 1.64917857 0.67156244 12.17426702
v 7.50649402 2.17495927 14.01934197
v 7.61407622 1.58579927 13.25142839
v 0.59880000 2.14386433 13.76102015
v 0.33846680 2.30243963 14.32513101
v -0.43830000 2.10430000 14.06340000
v -0.43830000 0.94655590 12.80237993
v 0.60062964 2.34811285 14.36180636
v 0.36057452 1.81462868 13.30990702
v 0.52500000 2.31020000 14.20960000
v -0.43830000 1.96856224 13.76605293
v 1.90949821 1.05129647 12.21983916
v -0.43830000 1.50628405 13.17632522
v 7.54388867 2.19404567 14.31789416
v 0.60620000 2.31040000 14.20960000
v 0.52500000 2.13919760 13.76351100
v -0.18300000 1.82486527 13.46552847
v -0.30625199 1.07752110 12.84615553
v -0.30386863 2.12467796 14.05597547
v 0.01043764 1.98179915 13.64243584
f 5 2 1
f 6 4 3
f 10 6 2
f 10 2 5
f 10 9 6
f 11 2 6
f 12 5 1
f 13 3 4
f 14 5 4
f 14 4 6
f 14 6 9
f 14 10 5
f 14 9 10
f 15 1 2
f 15 2 11
f 16 11 6
f 16 6 3
f 16 3 11
f 17 11 3
f 17 15 11
f 17 3 13
f 18 12 1
f 18 1 7
f 18 7 12
f 19 5 12
f 20 4 5
f 20 5 19
f 21 7 1
f 22 17 13
f 22 13 8
f 23 12 7
f 23 7 21
f 24 20 19
f 25 20 13
f 25 13 4
f 25 4 20
f 26 8 13
f 26 24 8
f 26 20 24
f 27 21 1
f 27 1 15
f 27 15 21
f 28 23 21
f 28 21 15
f 28 15 17
f 28 17 23
f 29 23 17
f 29 24 19
f 29 17 22
f 30 22 8
f 30 8 24
f 31 26 13
f 31 13 20
f 31 20 26
f 32 29 19
f 32 23 29
f 32 19 12
f 32 12 23
f 33 29 22
f 33 22 30
f 33 30 24
f 33 24 29

