# https://github.com/mikedh/trimesh
v 6.61640613 -0.97531370 16.94079650
v 6.80514350 -1.22302470 16.78527792
v 6.80806428 -2.26372133 14.34472607
v 0.30537815 -2.27430000 14.29120104
v 0.26500000 -1.78960000 16.33420000
v 6.62021931 -0.97832653 16.93945798
v 1.15276866 -0.97258365 16.94919390
v 6.61675231 -2.10589305 15.81204332
v 1.15254308 -1.20618694 16.82060168
v 6.77611389 -2.00639504 15.98913547
v 0.51768525 -2.29555398 15.44381809
v 1.15295660 -0.98114194 16.94552582
v 6.75006000 -1.17956486 16.82199135
v 6.78886633 -2.29138189 15.15890284
v 0.60620000 -1.94904431 16.19101997
v 0.22887904 -1.92808076 16.13900848
v 6.77445518 -1.18949470 16.81288137
v 0.60620000 -2.29680000 15.44410000
v 0.60421936 -2.33109386 14.35796487
v 0.60085728 -2.13127648 15.88758142
v 0.43171501 -2.32218686 15.26018290
v 0.52500000 -1.94897318 16.19097466
v 6.79207965 -2.29870944 14.55139431
v 0.36238774 -2.09470256 15.88332108
v 0.36994961 -2.30252490 14.35741430
v 0.34389169 -1.92411808 16.17888754
v 6.78913845 -2.26631362 14.35275596
f 1 3 4
f 6 2 3
f 6 3 1
f 7 1 4
f 7 4 5
f 12 7 5
f 12 5 9
f 12 9 6
f 12 6 1
f 12 1 7
f 13 6 9
f 13 9 5
f 13 5 2
f 14 10 8
f 14 3 2
f 14 2 10
f 15 10 2
f 15 2 5
f 16 5 4
f 17 13 2
f 17 2 6
f 17 6 13
f 18 14 8
f 19 4 3
f 20 8 10
f 20 10 15
f 20 18 8
f 20 11 18
f 21 16 4
f 21 18 11
f 21 14 18
f 22 15 5
f 22 20 15
f 23 3 14
f 23 21 19
f 23 14 21
f 24 11 20
f 24 21 11
f 24 16 21
f 24 22 16
f 24 20 22
f 25 21 4
f 25 4 19
f 25 19 21
f 26 22 5
f 26 5 16
f 26 16 22
f 27 23 19
f 27 19 3
f 27 3 23

