# https://github.com/mikedh/trimesh
v 6.78913845 -2.26631362 14.35275596
v 1.67900789 -0.67036464 12.10981679
v 6.78558551 -0.96373574 13.14268611
v 0.32563542 -0.46711599 12.50814547
v -0.43830000 -2.14920000 14.24910000
v 5.73029902 -0.80237019 12.14579326
v -0.41258077 -1.45879732 13.14204426
v -0.42299764 -2.19580739 14.46252625
v 5.83448404 -0.80764547 12.87727151
v 6.75828268 -1.81874879 13.20842628
v -0.43830000 -0.59560000 12.67080000
v 0.59880000 -2.30180000 14.20820000
v 6.82991651 -1.82557350 14.01475872
v 2.22911999 -1.11136223 12.12392253
v -0.43830000 -1.64195541 13.32532637
v -0.43738765 -2.19156874 14.44068479
v 0.60421936 -2.33109386 14.35796487
v 6.76976051 -2.12578508 13.73827125
v 6.77547632 -1.97236395 13.42899073
v 4.77161493 -1.27898799 12.29179162
v -0.43830000 -1.05085435 12.86332721
v 0.36066513 -2.13197331 13.82951716
v 0.51784527 -2.29557686 14.20987574
v 0.56021827 -2.33100710 14.34621445
v 0.26500000 -2.30240000 14.41970000
v 6.79201821 -1.11056812 13.24591638
v 6.80806428 -2.26372133 14.34472607
v 5.53260248 -1.12640249 12.29087012
v -0.42414397 -1.93746716 13.72956936
v 0.52477984 -1.94657343 13.45901876
v 0.19767092 -1.64370406 13.17629594
v 2.96206606 -1.30788573 12.38679559
f 6 2 4
f 9 6 4
f 9 4 3
f 9 3 6
f 10 6 3
f 11 4 2
f 11 8 3
f 11 3 4
f 13 8 1
f 13 3 8
f 14 2 6
f 14 11 2
f 15 5 11
f 15 7 14
f 16 11 5
f 16 8 11
f 18 1 12
f 20 14 6
f 20 10 19
f 21 14 7
f 21 11 14
f 21 15 11
f 21 7 15
f 22 19 18
f 22 18 12
f 23 22 12
f 23 5 22
f 24 12 1
f 24 1 17
f 24 23 12
f 25 17 1
f 25 1 8
f 25 24 17
f 25 8 16
f 25 23 24
f 25 16 5
f 25 5 23
f 26 19 10
f 26 10 3
f 26 3 13
f 26 13 19
f 27 19 13
f 27 13 1
f 27 1 18
f 27 18 19
f 28 20 6
f 28 6 10
f 28 10 20
f 29 22 5
f 29 5 15
f 30 20 19
f 30 19 22
f 30 29 15
f 30 22 29
f 31 30 15
f 31 15 14
f 31 14 30
f 32 30 14
f 32 14 20
f 32 20 30

