# https://github.com/mikedh/trimesh
v 2.13241373 -0.30912123 11.01523735
v 2.64685609 -1.13737507 11.01543377
v 2.35757033 1.04062498 9.90384333
v 1.33011477 0.92621446 4.89040064
v 1.32946220 -0.91271271 4.89042711
v 2.83110025 -1.08818032 5.87978485
v 1.71095757 0.73831375 10.03480350
v 2.31680000 1.03800000 10.06630000
v 1.72048344 -0.70558848 11.00453544
v 2.80092056 -1.09374863 8.71024945
v 1.96435802 1.05291645 4.94041847
v 2.05407178 -1.35467222 4.89059982
v 1.65832198 -0.33217868 11.01173232
v 1.89672165 0.86674369 10.05081481
v 2.37904391 0.93922162 8.74008306
v 2.64203842 -1.00303973 5.34584068
v 1.72060000 -0.76480000 10.67820000
v 2.27010971 -1.08889477 4.97169899
v 2.14662781 -0.98532979 10.96157237
v 2.60799809 -1.12753166 11.01057354
f 8 1 2
f 8 2 3
f 10 6 3
f 10 3 2
f 11 8 3
f 11 4 8
f 12 5 4
f 12 4 11
f 12 10 2
f 12 6 10
f 13 1 8
f 13 7 4
f 13 4 5
f 13 5 9
f 13 9 2
f 13 2 1
f 14 8 4
f 14 4 7
f 14 13 8
f 14 7 13
f 15 11 3
f 15 3 6
f 15 6 11
f 16 11 6
f 16 6 12
f 17 9 5
f 17 5 12
f 18 16 12
f 18 12 11
f 18 11 16
f 19 17 12
f 19 9 17
f 20 19 12
f 20 12 2
f 20 2 9
f 20 9 19

