# https://github.com/mikedh/trimesh
v 3.96923093 -2.88481221 4.33700000
v 0.32427131 -2.81853713 0.03250000
v -0.17740626 -2.84730189 4.17956733
v 0.32695870 -2.83205403 0.03250000
v 3.47371868 -2.84409720 0.01858980
v -0.33801112 -2.81069630 2.56733056
v 3.64810000 -2.88710000 4.33700000
v -0.33807356 -2.81122629 3.81200000
v 3.96840572 -2.88609779 4.33700000
v -0.33102531 -2.81708183 3.81200000
v 3.62460000 -2.85580000 1.24229567
f 5 4 2
f 6 2 4
f 6 4 3
f 6 5 2
f 7 1 3
f 7 3 4
f 7 4 5
f 8 3 1
f 8 5 6
f 9 7 5
f 9 1 7
f 10 8 6
f 10 6 3
f 10 3 8
f 11 9 5
f 11 1 9
f 11 8 1
f 11 5 8

