# https://github.com/mikedh/trimesh
v -0.71000000 -2.81890000 4.60500000
v -0.17025447 -2.84761303 4.17902689
v -2.03297896 -1.47901131 3.90154735
v -1.95896125 -1.97332012 0.01630000
v -1.60355133 -2.61614952 0.01630000
v 0.32427131 -2.81853713 0.03250000
v -1.99006369 -1.98371037 4.56831347
v 0.34272258 -2.83756673 1.38381329
v -2.00494005 -1.47841043 0.70470000
v -0.22890000 -2.49020000 0.00000000
v -0.48967934 -2.80173302 0.23864646
v -1.71027346 -2.62840722 4.53529879
v -1.99743893 -2.25458429 4.08698911
v 0.32695870 -2.83205403 0.03250000
v -1.33932467 -1.99808963 0.00000000
v -0.97809044 -2.78659529 4.60500000
v -1.99730000 -2.23400000 4.33700000
v -1.84740000 -2.43400000 0.01630000
v -1.98759593 -1.80130718 0.74231184
v -0.33053675 -2.80475376 0.03250000
v -1.74900000 -2.62710000 4.10720000
v -1.98721438 -1.99472645 4.57958090
v -1.85884715 -2.49319573 4.53284641
v -1.99091718 -2.25286736 4.33700000
f 7 1 2
f 7 2 3
f 8 3 2
f 10 9 3
f 10 8 6
f 10 3 8
f 11 2 1
f 13 3 9
f 14 10 6
f 14 5 10
f 14 6 8
f 14 8 2
f 14 2 11
f 15 10 5
f 15 4 9
f 15 9 10
f 16 11 1
f 16 5 11
f 17 7 3
f 17 3 13
f 18 13 4
f 18 15 5
f 18 4 15
f 19 13 9
f 19 9 4
f 19 4 13
f 20 14 11
f 20 11 5
f 20 5 14
f 21 16 12
f 21 5 16
f 21 18 5
f 22 16 1
f 22 1 7
f 22 12 16
f 22 7 17
f 23 13 18
f 23 18 21
f 23 21 12
f 23 22 17
f 23 12 22
f 24 23 17
f 24 17 13
f 24 13 23

