# https://github.com/mikedh/trimesh
v 5.72598853 1.29040842 12.76419212
v 5.83448404 -0.80764547 12.87727151
v 5.95415457 -0.10636016 6.06235353
v 5.72310478 0.18165908 5.21634438
v 4.55707856 -1.27301402 12.03496328
v 5.61052408 0.65671745 5.82894603
v 5.94210000 0.00680000 9.40660000
v 5.36341011 -0.89888493 12.78934370
v 5.36810000 -1.14360000 6.71160000
v 5.74814478 0.44875319 6.39268497
v 5.85970000 0.00680000 5.32810000
v 4.99337986 1.14649410 12.15809008
v 5.95050000 -0.51550000 7.85250000
v 4.95391977 -1.25593597 12.29327996
v 5.57555524 -0.86134051 12.86569904
v 5.01028021 -1.07078404 5.62899848
v 5.63141866 0.66858736 6.23752513
v 5.78690000 -0.46780000 5.32830000
v 5.63884991 0.59866254 5.82890000
v 5.50676736 0.81812328 6.18528725
v 5.44132690 1.21459340 12.64125604
v 5.93259457 -0.35894882 9.17054497
v 5.74296127 -0.95628729 12.27604980
v 4.62396644 -1.26553031 10.01988088
v 5.92920255 -0.29971912 6.05831609
v 5.40806340 -0.99113234 5.78107715
v 5.50653421 -0.51011867 5.34568601
v 5.76221546 -0.68229200 6.06529999
v 5.06522951 1.15563411 12.28107437
v 5.40835781 -1.14436075 12.22143973
v 5.00321084 -1.15142194 6.26177437
v 4.71472822 -0.80083244 9.98679209
v 5.94716954 -0.35408624 6.39190266
v 5.22264493 -1.13860369 6.22396294
v 5.60064025 -0.82814550 5.71638272
v 5.93008765 -0.54623420 7.70644579
v 5.50837967 -0.95186939 5.91038866
f 7 1 2
f 7 3 1
f 10 1 3
f 11 4 6
f 11 10 3
f 13 3 7
f 14 8 5
f 15 2 1
f 15 1 8
f 15 14 2
f 15 8 14
f 16 6 4
f 17 6 1
f 17 1 10
f 18 4 11
f 19 11 6
f 19 10 11
f 19 17 10
f 19 6 17
f 20 12 1
f 20 1 6
f 20 16 12
f 20 6 16
f 21 8 1
f 22 13 7
f 22 7 2
f 22 2 13
f 23 13 2
f 24 14 5
f 24 9 14
f 24 5 12
f 25 18 11
f 25 11 3
f 26 16 18
f 27 18 16
f 27 16 4
f 27 4 18
f 28 23 9
f 29 21 1
f 29 1 12
f 29 12 5
f 29 5 8
f 29 8 21
f 30 14 9
f 30 9 23
f 30 23 2
f 30 2 14
f 31 24 16
f 31 9 24
f 32 24 12
f 32 12 16
f 32 16 24
f 33 25 3
f 33 3 13
f 33 28 18
f 33 18 25
f 34 26 9
f 34 16 26
f 34 31 16
f 34 9 31
f 35 26 18
f 35 18 28
f 36 13 23
f 36 23 28
f 36 33 13
f 36 28 33
f 37 35 28
f 37 28 9
f 37 9 26
f 37 26 35

