# https://github.com/mikedh/trimesh
v -3.87300000 0.39470000 16.72440000
v -3.87300000 -1.35570000 16.18930000
v -3.87300000 0.61543819 12.99678172
v -4.41749894 0.59705583 13.04925476
v -6.06388299 -0.54861383 15.78882966
v -3.87300000 -1.49239468 13.61844511
v -3.87300000 1.90430000 15.16140000
v -4.41897450 -0.58095920 16.60485419
v -3.87300000 -0.65750000 13.01630000
v -4.57316505 -1.80062335 14.98493560
v -4.42497651 1.64549702 13.93056567
v -5.80460000 0.84697221 15.81417942
v -4.41530898 -1.31677263 16.15040586
v -3.87300000 -0.65750000 16.63740000
v -4.58905283 -0.14260092 13.01667838
v -3.87300000 -1.80390000 15.48590000
v -3.87300000 1.48290000 13.58830000
v -4.32184254 1.45912813 16.04680715
v -5.71630000 0.29311917 16.14488212
v -5.71737649 1.31640746 15.11532342
v -5.71630000 -0.66460000 15.98980000
v -4.57000442 -0.25189194 16.63555813
v -4.14840000 -1.22500000 16.29490000
v -4.56834402 0.26558598 13.01747922
v -5.54369766 -0.83655023 13.69294773
v -3.87300000 -1.81802196 14.21271568
v -4.38723351 -1.65536925 15.70026256
v -3.87300000 1.81750000 14.16780000
v -4.28805068 1.22846087 13.37091943
v -3.87300000 1.36930000 16.18930000
v -4.46040000 0.90294142 16.45479591
v -6.06975771 0.55889009 15.78842696
v -4.59613683 1.78518002 14.53387716
v -4.32470000 1.78900000 15.47550000
v -5.53915449 1.16782338 15.63982726
v -4.84380000 -0.86388550 16.29112176
v -5.73808968 -0.38548204 16.10274046
v -3.87300000 -0.91705813 16.51615329
v -6.07330000 0.71890000 13.97820000
v -4.39893823 -0.56388972 13.03704093
v -6.07330000 -1.03420000 14.44790000
v -4.43005959 -1.80342454 15.28289946
v -5.71630000 -1.15610000 15.49820000
v -3.87300000 -1.66180000 15.79020000
v -3.87300000 1.21288711 13.32600067
v -4.46040000 0.90110822 13.19792652
v -4.29080093 1.47286383 13.62214862
v -4.44763921 1.31268187 16.15466767
v -5.80476381 0.57044560 15.99207652
v -3.87300000 0.97020000 16.49560000
v -4.54413411 0.43243436 16.60915334
v -6.07301507 0.96639912 15.38048969
v -4.29032213 1.79777522 14.20210545
v -4.61400000 1.79800000 14.98350000
v -3.87300000 1.69699082 15.74876897
v -5.54735045 1.29707048 15.40334447
v -4.42237613 1.64655990 15.72260356
v -5.55094292 -0.99851046 15.81828689
v -5.21339135 -0.52842664 16.28556196
v -4.42133903 -1.15755634 16.28846118
v -5.78229613 -0.54775821 16.01599760
v -5.06382061 -0.12623430 16.44444111
v -5.71630000 0.42965062 13.55101180
v -5.70746453 1.28163781 14.39631540
f 1 2 3
f 6 3 2
f 7 1 3
f 9 3 6
f 14 2 1
f 15 3 9
f 16 6 2
f 17 7 3
f 22 14 1
f 22 8 14
f 23 13 2
f 24 4 3
f 24 3 15
f 26 6 16
f 28 17 11
f 28 7 17
f 30 1 7
f 32 5 19
f 37 19 5
f 38 23 2
f 38 2 14
f 38 14 8
f 40 25 15
f 40 15 9
f 40 9 6
f 40 6 25
f 41 5 32
f 41 26 10
f 41 25 6
f 41 6 26
f 42 26 16
f 42 10 26
f 42 16 27
f 43 27 13
f 43 42 27
f 43 5 41
f 43 41 10
f 43 10 42
f 44 27 16
f 44 16 2
f 44 2 13
f 44 13 27
f 45 29 17
f 45 17 3
f 46 3 4
f 46 39 29
f 46 45 3
f 46 29 45
f 47 11 17
f 47 17 29
f 47 29 39
f 48 12 31
f 48 35 12
f 48 18 35
f 48 30 18
f 49 31 12
f 49 19 31
f 49 32 19
f 49 12 32
f 50 31 1
f 50 1 30
f 50 48 31
f 50 30 48
f 51 22 1
f 51 1 31
f 51 31 19
f 52 32 12
f 52 41 32
f 52 39 41
f 52 12 35
f 53 28 11
f 53 33 7
f 53 7 28
f 54 33 20
f 54 20 34
f 54 34 7
f 54 7 33
f 55 30 7
f 55 7 34
f 55 18 30
f 56 34 20
f 56 52 35
f 56 20 52
f 57 35 18
f 57 56 35
f 57 34 56
f 57 55 34
f 57 18 55
f 58 43 13
f 58 21 5
f 58 5 43
f 59 36 8
f 59 21 36
f 59 8 22
f 59 22 37
f 60 8 36
f 60 38 8
f 60 23 38
f 60 13 23
f 60 58 13
f 60 36 21
f 60 21 58
f 61 37 5
f 61 5 21
f 61 59 37
f 61 21 59
f 62 37 22
f 62 19 37
f 62 51 19
f 62 22 51
f 63 4 24
f 63 24 15
f 63 15 25
f 63 41 39
f 63 25 41
f 63 46 4
f 63 39 46
f 64 47 39
f 64 11 47
f 64 53 11
f 64 33 53
f 64 20 33
f 64 52 20
f 64 39 52

