# https://github.com/mikedh/trimesh
v -1.30140000 0.72800000 16.79230000
v -1.30140000 -2.01360000 15.36820000
v -1.30140000 1.23324410 13.13401982
v -1.43539560 0.60378880 12.84426554
v -1.99050000 -1.84434511 15.44492773
v -1.30140000 -1.19290000 13.11350000
v -1.46586126 -1.95733697 15.41867983
v -1.99041182 1.84220164 15.49490059
v -1.30140000 -0.55770000 12.80650000
v -1.99039868 -1.79322486 14.07339530
v -1.99050000 0.62557276 16.68131767
v -1.30140000 2.06660000 15.19000000
v -1.99050000 1.50310000 13.57130000
v -1.30140000 0.61834603 12.82298262
v -1.30140000 -1.99007284 14.21075405
v -1.95540613 -0.70655242 13.00968037
v -1.44790000 1.69760000 16.01070000
v -1.99050000 0.75680538 13.02433807
v -1.30140000 2.02720000 14.28550000
v -1.30140000 -1.68450988 13.59830927
v -1.41701950 -1.95813676 14.19313718
v -1.44790000 -0.59186345 12.84770646
v -1.99050000 -1.24860000 13.33070000
v -1.95100461 1.00496298 16.50556804
v -1.30140000 1.81820000 15.87260000
v -1.99050000 1.26220000 13.33070000
v -1.30140000 1.72020000 13.62710000
v -1.96140377 1.78225776 14.01216757
v -1.46587967 1.97006027 14.23263791
v -1.44790000 -1.68390000 13.64290000
v -1.44790000 -1.20021796 13.15384320
v -1.44790000 1.03890000 16.61440000
v -1.99050000 1.65466653 15.87185120
v -1.39840000 1.98908766 15.43285565
v -1.44018949 1.21401845 13.15189486
v -1.44790000 1.69760000 13.64290000
v -1.99050000 -1.48940000 13.57130000
v -1.99050000 0.68020000 16.66220000
v -1.30140000 1.05270000 16.63830000
f 1 2 3
f 6 3 2
f 7 5 2
f 7 2 1
f 7 1 5
f 9 3 6
f 11 5 1
f 12 1 3
f 13 5 11
f 14 9 4
f 14 3 9
f 15 6 2
f 15 2 5
f 18 4 16
f 18 5 13
f 18 14 4
f 18 3 14
f 19 12 3
f 20 6 15
f 21 15 5
f 21 5 10
f 21 10 15
f 22 9 6
f 22 6 16
f 22 16 4
f 22 4 9
f 23 18 16
f 23 5 18
f 25 1 12
f 26 18 13
f 26 13 3
f 27 19 3
f 27 3 13
f 28 13 8
f 28 19 27
f 29 8 12
f 29 12 19
f 29 28 8
f 29 19 28
f 30 20 15
f 30 15 10
f 31 23 16
f 31 16 6
f 31 6 20
f 31 20 23
f 32 17 24
f 33 24 17
f 33 13 11
f 33 8 13
f 33 25 8
f 33 17 25
f 34 25 12
f 34 12 8
f 34 8 25
f 35 26 3
f 35 3 18
f 35 18 26
f 36 28 27
f 36 27 13
f 36 13 28
f 37 23 20
f 37 20 30
f 37 30 10
f 37 10 5
f 37 5 23
f 38 32 24
f 38 11 1
f 38 1 32
f 38 33 11
f 38 24 33
f 39 25 17
f 39 17 32
f 39 32 1
f 39 1 25

