# https://github.com/mikedh/trimesh
v 8.14130000 1.82800707 13.91869919
v 8.47139844 -1.08821898 13.26065916
v 8.18858351 0.00680000 12.65755357
v 5.68890000 0.00680000 11.82390000
v 5.78910102 -1.13004422 13.18505670
v 7.86068787 -0.89828605 12.70719020
v 7.86782422 1.78116841 13.41633048
v 8.53071613 0.00183175 13.16383198
v 8.37140000 0.32544424 13.86825726
v 5.29384225 1.67460176 13.18657654
v 8.40705161 -0.61737696 12.94063536
v 7.88773578 -0.11576783 12.52268644
v 6.14876335 -1.81370498 13.17648326
v 7.86934144 0.91986283 12.86453120
v 8.34922436 1.67645439 13.65155293
v 7.61373786 2.02590199 13.88532574
v 5.69756313 -1.02374041 12.30837393
v 5.43797503 1.14356065 12.51598380
v 8.18085558 -0.30186964 12.66954438
v 8.27844885 -1.04620028 13.00275390
v 8.47190000 -0.07770000 12.90940000
v 5.71989076 -0.47800190 11.91726098
v 7.87761142 -0.09513435 12.51796012
v 7.58921451 -1.78956497 13.29995429
v 7.45060000 1.08586405 12.82986604
v 8.32540000 1.60088720 13.87189309
v 8.13359140 1.18416772 13.16028491
v 7.58482601 1.87538789 13.40996922
v 8.15692972 1.79449391 13.61300994
v 5.76659006 -1.60601451 12.97244818
v 5.28645040 1.39180683 12.87287671
v 7.73725172 -0.57182311 12.55394103
v 8.42047255 -1.03056703 13.14714887
v 8.02680585 -0.76768269 12.71972774
v 7.54108516 -1.51747717 12.99621479
v 7.73589545 0.60471257 12.69184944
v 8.07860000 -1.56110000 13.25440000
v 7.86435191 1.25083772 13.05313539
v 5.67691558 0.43856965 12.08778675
v 8.30046281 1.70749138 13.62804697
v 8.15732184 0.88312073 13.00350853
v 5.28676312 1.57278767 13.08083641
v 7.83709109 -1.20040611 12.85300637
v 7.50870000 -1.67740000 13.13580000
v 7.97330000 0.76541027 12.83845999
v 7.98236062 1.35626532 13.18934168
v 8.26764771 0.62893266 12.99896426
v 8.01137810 -1.32836635 13.01943742
v 7.53150000 -1.01000000 12.66870000
v 8.00822569 -1.47962968 13.14232528
f 9 2 8
f 13 9 5
f 16 9 1
f 16 5 9
f 16 10 5
f 19 12 3
f 21 8 2
f 21 2 11
f 21 15 8
f 21 19 3
f 21 11 19
f 23 12 4
f 23 3 12
f 24 9 13
f 25 14 4
f 26 9 8
f 26 8 15
f 26 15 1
f 26 1 9
f 28 10 16
f 28 18 10
f 28 25 18
f 28 7 25
f 29 28 16
f 29 7 28
f 29 16 1
f 30 5 10
f 30 17 13
f 30 13 5
f 31 10 18
f 31 17 30
f 31 18 4
f 31 22 17
f 31 4 22
f 32 12 19
f 32 6 22
f 32 22 4
f 32 4 12
f 33 20 11
f 33 11 2
f 34 19 11
f 34 11 20
f 34 32 19
f 34 6 32
f 35 17 22
f 36 3 23
f 36 23 4
f 36 4 14
f 37 2 9
f 37 9 24
f 37 33 2
f 37 20 33
f 38 25 7
f 38 14 25
f 38 27 14
f 39 25 4
f 39 4 18
f 39 18 25
f 40 27 7
f 40 15 27
f 40 7 29
f 40 29 1
f 40 1 15
f 41 14 27
f 41 27 15
f 42 31 30
f 42 30 10
f 42 10 31
f 43 34 20
f 43 6 34
f 43 35 22
f 44 24 13
f 44 13 17
f 44 17 35
f 44 37 24
f 45 36 14
f 45 3 36
f 45 41 3
f 45 14 41
f 46 38 7
f 46 7 27
f 46 27 38
f 47 21 3
f 47 3 41
f 47 41 15
f 47 15 21
f 48 43 20
f 48 20 37
f 48 35 43
f 49 43 22
f 49 22 6
f 49 6 43
f 50 44 35
f 50 37 44
f 50 48 37
f 50 35 48

