# https://github.com/mikedh/trimesh
v 5.61271826 0.69984427 6.72933620
v 6.10980525 -2.29205014 4.78180000
v 6.12850000 2.31860000 4.71550000
v 6.18228370 2.32297117 4.37583310
v 5.01150000 -1.45880000 4.86360000
v 6.17956481 -2.30931109 4.39688101
v 5.63022594 0.67583231 6.70770196
v 5.01028021 -1.07078404 5.62899848
v 5.00692769 1.39729232 4.88952121
v 6.18273244 -2.30278196 4.37588387
v 5.44169181 -2.25048472 4.82739279
v 5.40806340 -0.99113234 5.78107715
v 5.78933271 2.32767237 4.82603895
v 5.02020000 1.42150000 4.87790000
v 4.95620000 1.12370000 6.72470000
v 6.16043723 2.35285066 4.39442987
v 6.08050000 2.29160000 4.81500000
v 5.22895123 1.01863429 6.67160227
f 6 3 2
f 6 4 3
f 7 1 2
f 7 2 3
f 7 3 1
f 10 5 4
f 10 4 6
f 11 6 2
f 11 10 6
f 11 5 10
f 11 8 5
f 12 2 1
f 12 1 8
f 12 11 2
f 12 8 11
f 14 4 5
f 14 5 9
f 15 9 5
f 15 5 8
f 15 8 1
f 15 14 9
f 15 13 14
f 16 13 3
f 16 3 4
f 16 14 13
f 16 4 14
f 17 1 3
f 17 3 13
f 17 13 15
f 18 17 15
f 18 15 1
f 18 1 17

