# https://github.com/mikedh/trimesh
v 1.62485157 1.24267264 12.75990134
v 2.78404024 -1.22877337 11.73522226
v 1.96519837 0.89905646 10.02886862
v 1.73688392 0.52042432 9.59736766
v -0.34514066 -0.59964631 12.65632737
v 2.64685609 -1.13737507 11.01543377
v 2.77804661 -1.05808614 11.85494998
v -0.43830000 0.86665712 12.76811131
v 1.73606960 -0.50633029 9.59843631
v 2.34349830 -1.17117857 12.21199348
v 2.13960000 0.28270000 12.51820000
v 0.31703369 1.19449904 12.79607372
v 1.73898830 0.72379094 9.90076756
v 1.73877270 -0.70874621 9.92005606
v 0.46638910 0.26958473 10.67151662
v 2.68459391 -1.24379126 12.17151238
v 1.84776379 0.90321024 11.99271064
v 2.60799809 -1.12753166 11.01057354
v 0.46790000 -0.33080000 10.75150000
v 1.68221148 -0.37065466 9.57971805
v 0.46790000 0.34450000 10.75150000
v -0.43830000 -0.19610000 12.59060000
v 2.67530000 -1.12900000 12.16980000
v 2.13960000 -0.26910000 12.51820000
v 0.46850000 -0.26910000 10.67560000
v -0.43830000 0.32480000 12.60330000
v 1.13687251 -0.69283342 12.57283216
v -0.43830000 0.77640000 12.72940000
f 6 4 3
f 7 6 3
f 7 2 6
f 9 4 6
f 10 5 6
f 11 7 3
f 12 8 5
f 12 5 1
f 12 1 3
f 12 3 8
f 13 8 3
f 13 3 4
f 14 9 6
f 16 2 7
f 16 5 10
f 16 10 6
f 16 6 2
f 17 11 3
f 17 3 1
f 17 1 11
f 18 14 6
f 18 6 5
f 18 5 14
f 19 14 5
f 19 9 14
f 20 15 4
f 20 4 9
f 21 13 4
f 21 4 15
f 21 15 8
f 21 8 13
f 22 5 8
f 23 16 7
f 23 7 11
f 23 11 16
f 24 16 11
f 24 11 1
f 25 15 20
f 25 22 15
f 25 19 5
f 25 5 22
f 25 20 9
f 25 9 19
f 26 22 8
f 26 15 22
f 27 24 1
f 27 1 5
f 27 5 16
f 27 16 24
f 28 26 8
f 28 8 15
f 28 15 26

