# https://github.com/mikedh/trimesh
v 7.88394720 0.57840754 16.97772920
v 8.41800335 -1.49292635 16.08727872
v 8.32540000 1.60088720 13.87189309
v 6.78558551 -0.96373574 13.14268611
v 6.45330234 -0.32542607 17.14989652
v 8.39397011 -1.24651191 13.25911502
v 8.47390000 0.00680000 16.73400000
v 6.76398588 -2.31316873 14.79359060
v 7.27892001 2.23546851 15.30536918
v 8.36962187 0.17600938 13.15918177
v 8.53071613 0.00183175 13.16383198
v 7.77825529 -0.75103591 16.95248107
v 6.75828268 -1.81874879 13.20842628
v 8.36224203 -1.97161228 14.52007994
v 7.27695034 1.90416006 16.09279702
v 7.58448268 2.04075945 13.87840740
v 6.44695835 0.14496246 17.16724100
v 8.47390000 -1.80490807 15.27504205
v 8.30531077 1.84993758 15.69285449
v 8.27340000 -0.59425713 16.80171451
v 6.77611389 -2.00639504 15.98913547
v 6.76976051 -2.12578508 13.73827125
v 7.56697689 2.18120961 14.06969982
v 8.02178680 0.00542232 13.17289387
v 8.14130000 1.82800707 13.91869919
v 7.30195405 2.18209637 15.53213371
v 7.56201808 1.06677724 16.80832335
v 7.26299089 -0.09466526 17.12834653
v 6.45144892 -0.30524793 17.15323259
v 8.47390000 -0.59073003 16.63120161
v 7.85480000 -2.14620000 15.41930000
v 8.42040931 -1.52978745 13.58911726
v 8.30117273 1.98992332 14.28455304
v 8.30575404 1.18015094 16.50315854
v 8.16188769 -1.36019082 16.45243264
v 8.12580000 0.00680000 16.97520000
v 6.77445518 -1.18949470 16.81288137
v 6.76888511 -2.18463733 15.58783940
v 7.83820598 -2.11121899 14.07475707
v 7.89284212 2.09283139 14.03147831
v 8.05525863 2.11112713 15.29984923
v 8.02841874 1.97707768 15.75488593
v 7.08200000 0.16782475 17.14490529
v 7.08200000 -0.30289781 17.13196526
v 8.39730000 -1.96030000 14.99890000
v 8.13678766 -1.99092655 15.55628068
v 8.39420000 -1.80230000 13.97620000
v 7.56451831 -1.79342056 13.29623014
v 8.27340000 0.61164878 16.80044965
v 8.29772832 1.66536280 16.02888941
v 7.87088989 1.07725007 16.78802604
v 8.03150469 -0.90133653 16.80093310
v 8.27340000 -1.20495079 16.50061319
v 8.17589550 -0.14189818 16.94546017
v 7.97830000 -0.44405119 16.97671979
v 6.79734697 -0.86209049 16.98138849
v 7.75478000 -1.35642507 16.64470496
v 7.85523304 -1.96602708 15.89579500
v 6.94304332 -2.30201651 14.62488230
v 8.03003508 -2.09567081 14.23814238
v 8.27340000 2.03110000 15.18790000
v 8.01364226 2.14169895 14.34764102
v 7.46407274 1.98040832 15.94608780
v 7.52044896 2.11135047 15.64138583
f 11 4 10
f 11 10 3
f 13 11 6
f 13 4 11
f 17 9 4
f 17 4 13
f 19 7 11
f 22 8 5
f 22 5 13
f 23 16 4
f 23 4 9
f 24 16 10
f 24 10 4
f 24 4 16
f 25 3 10
f 25 10 16
f 26 17 15
f 26 9 17
f 27 15 17
f 29 17 13
f 29 13 5
f 30 18 11
f 30 11 7
f 30 2 18
f 30 7 20
f 32 6 11
f 32 11 18
f 33 19 11
f 33 11 3
f 33 3 25
f 37 5 21
f 38 21 5
f 38 5 8
f 38 8 31
f 40 25 16
f 40 16 23
f 40 33 25
f 41 9 26
f 42 19 41
f 43 27 17
f 43 1 27
f 43 36 1
f 43 28 36
f 44 29 5
f 44 28 43
f 44 43 17
f 44 17 29
f 46 18 2
f 46 45 18
f 46 31 45
f 47 32 18
f 47 45 14
f 47 18 45
f 48 13 6
f 48 6 32
f 48 47 39
f 48 32 47
f 48 39 22
f 48 22 13
f 49 7 34
f 49 36 7
f 49 1 36
f 50 34 7
f 50 7 19
f 50 19 42
f 51 27 1
f 51 49 34
f 51 1 49
f 51 15 27
f 51 50 15
f 51 34 50
f 53 30 20
f 53 20 52
f 53 35 2
f 53 2 30
f 54 20 7
f 54 7 36
f 55 36 28
f 55 54 36
f 55 20 54
f 55 52 20
f 55 12 52
f 55 44 12
f 55 28 44
f 56 5 37
f 56 44 5
f 56 12 44
f 57 56 37
f 57 12 56
f 57 52 12
f 57 53 52
f 57 35 53
f 57 37 21
f 58 38 31
f 58 21 38
f 58 57 21
f 58 31 46
f 58 35 57
f 58 46 2
f 58 2 35
f 59 8 22
f 59 22 39
f 59 31 8
f 60 59 39
f 60 31 59
f 60 45 31
f 60 14 45
f 60 47 14
f 60 39 47
f 61 41 19
f 61 19 33
f 62 23 9
f 62 9 41
f 62 40 23
f 62 33 40
f 62 61 33
f 62 41 61
f 63 26 15
f 63 50 42
f 63 15 50
f 64 42 41
f 64 41 26
f 64 63 42
f 64 26 63

