# https://github.com/mikedh/trimesh
v 4.96258607 2.65946404 4.82600000
v 5.79445477 2.72377981 4.42409591
v -0.61951757 2.81347538 4.44346592
v -1.84740000 2.44760000 0.01630000
v 4.79685354 2.49304653 0.00000000
v -1.89162097 2.29053707 0.37654662
v 4.29922110 2.83062519 4.77059299
v 4.29882810 2.57573238 4.82600000
v 0.16448368 2.81935791 0.02458597
v -1.49803299 2.69210518 4.52903563
v -1.89872048 2.25831873 0.01630000
v 4.73550000 2.82050000 4.78180000
v 4.93525351 2.72720769 4.81717396
v -0.87721847 2.45678640 0.00000000
v -0.00082036 2.82223060 0.31830000
v 4.29490106 2.82126175 0.03250000
v -1.86072579 2.44806345 0.41409856
v -1.46210341 2.70104434 4.53951575
v 4.94937077 2.81641725 4.70934983
v 4.96696589 2.72893835 0.00493705
v -1.73291743 2.53854724 0.01630000
v -1.45598226 2.66567885 0.03250000
v 5.11512393 2.81640201 4.14904260
v 4.95599185 2.77295662 0.01630000
v 5.79624594 2.68374583 0.74737397
v -1.74081862 2.54872886 0.31830000
v -0.65272574 2.81111959 4.07951195
v 5.76067605 2.73184573 4.41269527
v 4.46241349 2.82024998 0.25269325
v 5.76102119 2.69269454 0.73466973
f 8 5 2
f 8 2 1
f 10 6 8
f 11 8 6
f 11 5 8
f 13 8 1
f 13 7 8
f 13 12 7
f 13 1 2
f 14 11 4
f 14 5 11
f 15 3 7
f 16 15 7
f 16 9 15
f 17 6 10
f 17 11 6
f 17 4 11
f 18 10 8
f 18 8 7
f 18 7 3
f 19 13 2
f 19 12 13
f 19 7 12
f 20 14 9
f 20 5 14
f 21 14 4
f 21 9 14
f 22 15 9
f 22 9 21
f 22 10 18
f 23 7 19
f 24 20 9
f 24 9 16
f 25 2 5
f 25 5 20
f 25 20 24
f 26 17 10
f 26 22 21
f 26 10 22
f 26 21 4
f 26 4 17
f 27 22 18
f 27 18 3
f 27 3 15
f 27 15 22
f 28 23 19
f 28 19 2
f 29 16 7
f 29 7 23
f 29 24 16
f 29 23 24
f 30 25 24
f 30 24 23
f 30 23 28
f 30 28 2
f 30 2 25

