# https://github.com/mikedh/trimesh
v 2.83110025 -1.08818032 5.87978485
v 4.96325582 -2.86568527 4.71550000
v 4.39419419 -1.25936927 5.03634665
v 1.98204100 -1.46591294 4.87181066
v 3.49309704 -2.80813103 4.81585271
v 5.03220000 -2.87660000 4.22230000
v 1.96349344 -1.00929709 4.96863809
v 1.98023201 -1.65936271 4.85467457
v 3.63480000 -2.88240000 4.60500000
v 2.49567674 -0.95390795 5.87729820
v 3.64810000 -2.88710000 4.33700000
v 4.37290000 -1.30460000 4.96920000
v 3.96840572 -2.88609779 4.33700000
v 3.77712991 -2.87599552 4.69488432
v 2.77934858 -1.07001283 5.88076475
f 1 2 3
f 5 2 1
f 6 3 2
f 8 7 4
f 10 1 3
f 10 3 7
f 10 7 8
f 10 8 5
f 11 7 6
f 11 4 7
f 11 8 4
f 11 9 5
f 11 5 8
f 12 7 3
f 12 3 6
f 12 6 7
f 13 6 2
f 13 2 9
f 13 11 6
f 13 9 11
f 14 9 2
f 14 2 5
f 14 5 9
f 15 10 5
f 15 5 1
f 15 1 10

