# https://github.com/mikedh/trimesh
v 4.57710000 1.30150000 12.61930000
v 5.38196970 0.93929770 12.10753697
v 4.94086046 1.11334859 5.71560435
v 1.97693664 1.34977006 4.88216808
v 1.69521285 0.83344729 12.18214788
v 2.80502999 1.34139406 4.94277012
v 5.24023903 1.05211883 12.21442341
v 1.69123467 0.85254075 12.21488605
v 5.69401857 0.61657320 6.71196260
v 4.76730308 1.14991829 5.89472892
v 2.13753853 1.39134766 4.88992497
v 5.33453770 0.99112766 8.19857590
v 5.39150197 0.73118724 11.80536845
v 1.68727426 0.77322150 10.19946400
v 1.94947168 0.66471136 5.12353154
v 2.38010000 1.17810000 12.15530000
v 4.99728884 1.09108906 5.71288293
v 5.61805785 0.69682598 9.09831782
v 2.08685201 0.65568725 6.71065335
v 1.95708311 1.21052973 4.91058835
v 1.90949821 1.05129647 12.21983916
v 5.61986180 0.69177526 6.73141860
f 7 1 2
f 8 2 1
f 10 6 1
f 10 1 3
f 10 3 6
f 11 6 4
f 11 1 6
f 12 3 1
f 12 1 7
f 12 7 2
f 13 8 5
f 13 2 8
f 14 8 4
f 14 5 8
f 16 1 11
f 16 11 4
f 17 3 12
f 17 9 15
f 17 15 6
f 17 6 3
f 18 12 2
f 18 9 12
f 18 13 9
f 18 2 13
f 19 13 5
f 19 5 14
f 19 9 13
f 19 15 9
f 19 14 15
f 20 4 6
f 20 6 15
f 20 15 14
f 20 14 4
f 21 8 1
f 21 1 16
f 21 16 4
f 21 4 8
f 22 17 12
f 22 12 9
f 22 9 17

