# https://github.com/mikedh/trimesh
v 4.60151140 -1.29107869 12.26272733
v 5.03182494 -1.20379766 10.11950065
v 5.18783632 -0.52473788 9.86383011
v 3.47178376 -1.30879997 4.97327459
v 5.06167343 -1.37681186 4.88601250
v 2.71364977 -1.05113053 12.17884216
v 5.10839855 -1.24372402 8.68713299
v 2.68459391 -1.24379126 12.17151238
v 5.02038376 -0.75112157 6.05319802
v 4.67534909 -0.83116816 12.09857057
v 5.24150970 -0.53580030 9.55080165
v 4.17941638 -1.31592930 9.37035222
v 2.88960000 -1.11010000 5.67050000
v 2.83010000 -0.97700000 12.19030000
v 5.04045502 -1.13274002 4.99894499
v 2.65344192 -1.01540211 8.66797784
v 3.46560581 -1.30110198 4.98467377
v 2.61825604 -1.08644912 10.02682312
f 1 2 3
f 7 2 1
f 7 1 5
f 8 4 5
f 10 1 3
f 11 7 5
f 11 3 2
f 11 2 7
f 11 9 3
f 12 8 5
f 12 5 1
f 12 1 8
f 13 4 8
f 13 3 9
f 14 8 1
f 14 6 8
f 14 1 10
f 14 10 3
f 15 5 4
f 15 13 9
f 15 11 5
f 15 9 11
f 16 6 14
f 16 14 3
f 16 3 13
f 17 15 4
f 17 4 13
f 17 13 15
f 18 16 13
f 18 13 8
f 18 8 6
f 18 6 16

