# https://github.com/mikedh/trimesh
v 4.99728884 1.09108906 5.71288293
v 5.80113142 1.67756019 4.82870832
v 4.29922110 2.83062519 4.77059299
v -1.86463961 2.49825454 4.53364616
v 1.65264734 0.98623219 4.90634886
v 5.76067605 2.73184573 4.41269527
v -1.61303853 2.63466354 4.78180000
v 4.99942238 1.11872873 5.06223024
v -1.93899062 2.28741339 4.54626832
v 4.97748793 1.20265673 4.96991721
v 5.75361876 2.68055956 4.80579236
v 3.47028393 1.20147437 5.71628362
v -0.18272887 2.84028199 4.49911129
v 1.67545699 0.97917048 4.91992939
v 4.29740150 2.85090529 4.38819867
v -1.84490000 2.46310000 4.78180000
v 5.79445477 2.72377981 4.42409591
v 4.95799611 2.81498806 4.51224963
v 0.74830000 2.85580000 4.78180000
v 4.94086046 1.11334859 5.71560435
v -1.46210341 2.70104434 4.53951575
v -1.31522354 1.47914418 4.82582434
v -1.63542933 2.63879805 4.71672293
v -1.86762720 2.47059648 4.69073486
v -0.48729151 2.82196602 4.71550000
v -1.69505630 1.85900459 4.82506409
v -1.91870000 2.23930000 4.78180000
v -0.47191111 2.83324815 4.54822414
f 8 2 1
f 9 6 5
f 10 6 2
f 10 5 6
f 10 8 5
f 10 2 8
f 11 1 2
f 12 11 3
f 14 8 1
f 14 5 8
f 14 1 12
f 15 9 4
f 15 6 9
f 15 4 13
f 16 12 7
f 17 11 2
f 17 2 6
f 17 6 11
f 18 11 6
f 18 3 11
f 18 15 3
f 18 6 15
f 19 12 3
f 19 7 12
f 19 15 13
f 19 3 15
f 20 12 1
f 20 1 11
f 20 11 12
f 21 13 4
f 22 9 5
f 22 5 14
f 22 14 12
f 23 16 7
f 23 21 4
f 23 7 21
f 24 4 9
f 24 23 4
f 24 16 23
f 25 7 19
f 25 21 7
f 26 9 22
f 26 22 12
f 27 24 9
f 27 16 24
f 27 9 26
f 27 26 12
f 27 12 16
f 28 25 19
f 28 19 13
f 28 13 21
f 28 21 25

