# https://github.com/mikedh/trimesh
v 6.10980525 -2.29205014 4.78180000
v 6.07906590 -2.42625148 4.78180000
v 6.13476209 -2.54839258 4.10738505
v 6.14766604 -1.98070067 1.24225727
v 4.96116019 -2.86571179 4.71550000
v 6.21536284 -1.97551306 4.37996579
v 6.11630000 -2.52830000 4.47170000
v 5.46495385 -2.30717602 4.82680273
v 5.69412906 -2.77701429 1.24778636
v 6.12754240 -2.25115881 1.29133423
v 6.21223406 -1.98286689 4.40128198
v 5.72966253 -2.79840167 4.67798415
v 5.62660000 -2.77240000 4.81500000
v 5.03220000 -2.87660000 4.22230000
v 6.15630000 -1.99210000 1.24229567
v 5.98370000 -2.65160000 1.33130000
v 5.97260000 -2.65980000 4.78180000
v 5.67888174 -2.78361797 1.27638250
v 5.66760000 -2.80300000 3.81210000
f 7 1 2
f 7 3 6
f 8 6 4
f 8 4 5
f 10 6 3
f 11 7 6
f 11 1 7
f 11 8 1
f 11 6 8
f 13 8 5
f 13 2 1
f 13 1 8
f 13 5 12
f 14 5 4
f 14 12 5
f 15 4 6
f 15 6 10
f 15 10 9
f 15 9 4
f 16 10 3
f 16 9 10
f 16 12 9
f 17 3 7
f 17 7 2
f 17 13 12
f 17 2 13
f 17 16 3
f 17 12 16
f 18 14 4
f 18 4 9
f 18 9 12
f 19 18 12
f 19 12 14
f 19 14 18

