# https://github.com/mikedh/trimesh
v 6.17448754 1.50042162 1.33130000
v 6.12754240 -2.25115881 1.29133423
v 6.15866892 1.65956327 0.01630000
v 5.76171867 1.48239152 0.00017143
v 4.96251298 -1.97878317 0.00000000
v 5.96280000 1.60550000 0.00000000
v 6.17354952 1.50564664 0.99400229
v 5.67888174 -2.78361797 1.27638250
v 6.11240000 -2.28680000 0.01630000
v 4.97500000 -2.83300000 0.01630000
v 5.94077388 -2.67028033 0.88145461
v 5.97430000 -2.64230000 0.01630000
v 6.07189187 -2.50717837 1.24235174
v 5.44671628 -2.79854445 0.01630000
v 5.84760000 -2.74260000 1.24229567
f 5 1 4
f 6 1 3
f 6 4 1
f 6 5 4
f 7 1 2
f 7 3 1
f 8 2 1
f 8 1 5
f 9 7 2
f 9 3 7
f 9 6 3
f 9 5 6
f 10 8 5
f 12 5 9
f 13 2 8
f 13 11 12
f 13 12 9
f 13 9 2
f 14 10 5
f 14 5 12
f 14 8 10
f 15 12 11
f 15 14 12
f 15 8 14
f 15 13 8
f 15 11 13

