# https://github.com/mikedh/trimesh
v 7.43511617 1.27216954 16.71550418
v 7.74540000 1.42680000 16.51920000
v 0.52500000 2.14088513 15.88687747
v -0.33725639 2.11961683 14.05781945
v 7.61549641 2.16993248 14.32657589
v -0.35870984 1.39667225 16.58368231
v 7.08200000 1.97732527 16.03213538
v 7.60984600 1.29087528 16.66064038
v 0.60062964 2.34811285 14.36180636
v 0.59880000 1.54310000 16.65770000
v -0.43830000 2.16280000 15.40450000
v 1.65030000 1.30575810 16.76813808
v 7.53690697 1.52936021 16.47937238
v 7.58536632 2.17440273 15.40761139
v 7.42550364 1.31220469 16.69114470
v 0.30990477 2.25207736 14.13388609
v -0.43830000 1.71670000 16.26160000
v 0.60598562 1.83758931 16.35520103
v -0.43830000 2.20490000 14.43930000
v 0.59880000 2.31540000 15.44540000
v 0.26500000 1.41352011 16.70028739
v 7.56171683 1.84921155 16.11692924
v 6.94286867 2.31562382 14.62488165
v 6.79173198 2.31234410 14.55154540
v 0.19759206 1.65729517 16.47732753
v -0.43830000 1.86237532 16.06441448
v 0.60398922 2.14083414 15.89059687
v -0.18300000 2.19203208 14.20495218
v -0.30403872 2.12717304 15.58971269
v 0.05670000 2.30970000 15.02830000
v 6.61670885 2.11949351 15.81204353
v 7.30195405 2.18209637 15.53213371
v 7.56430845 2.19182484 14.34952701
v 6.94288445 2.31562316 15.02881829
v -0.18300000 1.53608327 16.50579809
v 0.36015875 1.81457896 16.34375125
v 0.37076910 2.31656807 14.35825463
v 0.52500000 2.31020000 15.44410000
v 0.05670000 2.10190000 15.80380000
v 0.02885928 2.31363929 14.81586056
v 6.77673952 2.30912573 15.13177397
v 0.40830131 1.54241638 16.62626441
v -0.43830000 1.84186870 16.09662517
v 0.33699961 2.26893931 14.17521150
v 0.02888388 2.00492408 15.98046032
v 0.18732404 2.31640088 14.51685067
f 8 5 2
f 8 1 4
f 8 4 5
f 12 6 4
f 12 4 1
f 12 1 10
f 14 2 5
f 15 8 2
f 15 1 8
f 15 2 13
f 15 13 10
f 15 10 1
f 16 5 4
f 18 13 7
f 18 10 13
f 19 17 11
f 19 4 6
f 19 6 17
f 21 12 10
f 21 6 12
f 22 13 2
f 22 7 13
f 22 2 14
f 24 16 9
f 24 9 23
f 26 11 17
f 27 18 7
f 27 3 18
f 27 20 3
f 28 16 4
f 28 4 19
f 29 11 26
f 30 20 9
f 31 27 7
f 31 20 27
f 32 22 14
f 32 7 22
f 32 31 7
f 33 14 5
f 33 24 23
f 33 5 16
f 33 16 24
f 34 23 9
f 34 9 20
f 34 32 14
f 34 33 23
f 34 14 33
f 35 25 17
f 35 17 6
f 36 17 25
f 36 18 3
f 36 25 10
f 36 10 18
f 37 28 19
f 38 11 29
f 38 30 11
f 38 20 30
f 38 3 20
f 39 29 26
f 39 38 29
f 39 3 38
f 40 19 11
f 40 11 30
f 40 30 9
f 41 20 31
f 41 31 32
f 41 34 20
f 41 32 34
f 42 35 6
f 42 6 21
f 42 21 10
f 42 10 25
f 42 25 35
f 43 26 17
f 43 17 36
f 44 37 9
f 44 9 16
f 44 16 28
f 44 28 37
f 45 39 26
f 45 3 39
f 45 26 43
f 45 43 36
f 45 36 3
f 46 37 19
f 46 19 40
f 46 40 9
f 46 9 37

