# https://github.com/mikedh/trimesh
v 7.57827112 0.61280777 16.99589253
v 7.63408527 0.10515338 17.05737889
v 6.75349412 -1.18014103 16.82133941
v -0.43830000 1.44150000 16.53670000
v 0.59986500 0.62806786 17.14127113
v 7.60984600 1.29087528 16.66064038
v 7.08200000 0.32062773 17.13151138
v 0.30480396 -1.03814854 16.92498011
v 6.93813737 0.92916184 16.95201473
v 7.67992947 1.04023306 16.78968044
v 7.59747579 0.10600498 17.07666434
v -0.49248559 0.23501508 17.05032275
v 0.60620000 -0.63680000 17.13040000
v 7.43354674 0.77586924 16.96950485
v 6.06800000 0.47114495 17.13000919
v 1.64967058 1.40900376 16.69429796
v 6.79734697 -0.86209049 16.98138849
v -0.34382066 0.71833815 16.95842252
v 7.08200000 0.16782475 17.14490529
v 0.35640751 -0.62985112 17.10561873
v -0.46178277 0.22072763 17.05756264
v 0.35126864 -0.91333217 16.99213946
v 7.10647255 1.19508156 16.80212639
v 1.64976356 1.57188425 16.55996749
v 0.52500000 1.07194791 16.95827660
v -0.43830000 0.61442118 16.98097009
v 6.77632625 -0.46114561 17.11626104
v 0.42640000 0.64640000 17.11620000
v 7.56201808 1.06677724 16.80832335
v 7.58167771 1.29438198 16.66565679
v 0.59750837 1.07070276 16.96112000
v -0.43830000 1.28710000 16.65520000
v 0.01358504 1.18698374 16.80344911
f 6 3 4
f 8 4 3
f 10 1 2
f 10 2 3
f 10 3 6
f 11 2 1
f 11 1 7
f 12 4 8
f 14 9 7
f 14 7 1
f 14 1 10
f 15 9 5
f 15 7 9
f 17 3 2
f 17 2 11
f 17 13 3
f 19 5 13
f 19 15 5
f 19 7 15
f 19 11 7
f 20 12 8
f 21 13 5
f 21 20 13
f 21 12 20
f 22 8 3
f 22 3 13
f 22 20 8
f 22 13 20
f 23 9 14
f 24 6 4
f 24 16 23
f 25 24 4
f 27 19 13
f 27 13 17
f 27 17 11
f 27 11 19
f 28 21 5
f 28 12 21
f 28 26 12
f 28 18 26
f 28 25 18
f 28 5 25
f 29 23 14
f 29 14 10
f 29 10 6
f 30 24 23
f 30 6 24
f 30 29 6
f 30 23 29
f 31 23 16
f 31 16 24
f 31 24 25
f 31 9 23
f 31 25 5
f 31 5 9
f 32 26 18
f 32 4 12
f 32 12 26
f 33 25 4
f 33 4 32
f 33 32 18
f 33 18 25

